<svg width="186" height="50" viewBox="0 0 186 50" fill="none" xmlns="http://www.w3.org/2000/svg">
<path fill-rule="evenodd" clip-rule="evenodd" d="M14.5751 19.9362C14.3999 19.237 14.0188 18.3855 13.7739 17.707C13.5863 17.1872 13.2353 15.8723 12.9223 15.5589C12.9213 15.2114 12.4037 13.7952 12.2163 13.4593L11.8428 12.3303C11.694 12.0449 11.9123 12.1981 11.4363 12.1647L7.66183 12.1697L7.65781 14.4932C8.19109 14.6699 8.57587 15.1727 8.57587 15.7652C8.57587 16.5052 7.97593 17.1049 7.23599 17.1049C6.49609 17.1049 5.89628 16.5052 5.89628 15.7652C5.89628 15.2202 6.22178 14.7511 6.6888 14.5418C6.86374 13.9979 6.70019 12.7991 6.73844 12.162L2.65072 12.1708C2.59861 12.2802 2.62165 12.1993 2.57498 12.3953C1.7975 20.3645 1.02019 28.3308 0.267055 36.3021C0.0755243 37.3766 -0.170636 39.6272 0.168733 40.5885C0.571652 41.7292 1.48046 42.6062 2.62961 42.9819C3.96446 43.2771 5.66223 43.1408 7.07948 43.1409C8.64081 43.1412 10.2025 43.141 11.7633 43.1419L11.7418 36.2372L11.7472 37.9404C11.751 37.1436 11.7548 36.3478 11.7544 35.5559C11.7541 34.2783 11.7549 33.0008 11.7547 31.7233C11.7544 30.8335 11.6455 28.5468 11.7973 27.821L13.2869 31.906C14.4957 35.038 15.816 40.0356 17.326 42.8901C17.4104 43.2838 17.3943 43.1447 18.4922 43.1417L22.5802 43.1421C24.2155 43.1438 26.2138 43.3815 27.4251 42.5531C27.6724 42.3954 27.6831 42.4217 27.7532 42.2669C28.4717 41.9056 29.3007 40.4863 29.178 39.1322C29.0515 37.7366 28.9048 36.3229 28.7732 34.9378C28.5063 32.1297 28.2409 29.3083 27.9535 26.5159L27.2906 19.609C27.0944 18.3013 26.8268 12.8533 26.498 12.1772L22.4674 12.162L22.461 14.528C22.9454 14.7297 23.2861 15.2077 23.2861 15.7652C23.2861 16.5052 22.6863 17.1049 21.9464 17.1049C21.2064 17.1049 20.6065 16.5052 20.6065 15.7652C20.6065 15.1802 20.9816 14.6826 21.5045 14.5001L21.4969 12.1628L17.3897 12.1826L17.394 27.3906L14.5751 19.9362Z" fill="#F97316"/>
<path fill-rule="evenodd" clip-rule="evenodd" d="M7.65782 14.4571L7.66184 12.1336C7.58991 9.34442 7.51936 7.22296 9.05513 5.2978C10.4289 3.5757 12.1676 2.5162 14.5744 2.51729C16.2449 2.518 17.9254 3.16671 19.09 4.17966C19.2927 4.3559 19.3796 4.52058 19.5886 4.70121C19.9263 4.9932 19.8646 4.97515 20.1017 5.29114C21.5993 7.28567 21.6153 9.23224 21.4969 12.1267L21.5045 14.464C21.6428 14.4156 21.7915 14.3893 21.9464 14.3893C22.1288 14.3893 22.3025 14.4259 22.461 14.4919L22.4674 12.1259C22.3116 9.05755 22.904 7.1016 20.5471 4.25281L19.9608 3.64554C19.5946 3.23072 18.2907 2.44067 17.6753 2.176C16.4764 1.66026 14.9202 1.42135 13.4722 1.63353C11.4794 1.92569 9.90932 2.83789 8.64987 4.21351C7.3417 5.64241 6.68454 7.62446 6.68491 9.71362C6.68512 11.2043 6.57909 13.0767 6.68052 14.5097C6.84984 14.4325 7.03794 14.3893 7.23601 14.3893C7.38338 14.3893 7.52519 14.413 7.65782 14.4571Z" fill="#F97316"/>
<path d="M7.79984 13.9539L7.80394 11.5893C7.7321 8.75082 7.66162 6.59184 9.19623 4.63269C10.569 2.88008 12.3063 1.80186 14.7112 1.80295C16.3804 1.80376 18.0598 2.46397 19.2234 3.49474C19.426 3.67414 19.5129 3.84172 19.7217 4.02557C20.0591 4.32268 19.9974 4.30436 20.2345 4.62595C21.7308 6.6557 21.7468 8.63666 21.6286 11.5823L21.6022 13.8848C21.811 13.9094 22.0334 13.8191 22.0231 13.9505C22.2053 13.9505 22.4336 13.9221 22.592 13.9893L22.5983 11.5815C22.4427 8.45883 23.0345 6.46839 20.6795 3.56909L20.0936 2.95125C19.7278 2.52907 18.4248 1.72504 17.8099 1.45569C16.6118 0.930888 15.0568 0.687582 13.6099 0.9037C11.6187 1.20095 10.0497 2.12919 8.79121 3.52928C7.48412 4.98342 6.82739 7.00054 6.82781 9.1266C6.8279 10.6436 6.59119 13.9854 6.59119 13.9854C6.59119 13.9854 6.7793 13.9854 7.37846 13.8848C7.52573 13.8848 7.6674 13.9091 7.79984 13.9539Z" stroke="#F97316" stroke-width="1.12992" stroke-miterlimit="22.9256"/>
<path d="M43.1819 41.6405C41.2681 41.6405 39.5741 41.2138 38.0999 40.3603C36.6258 39.481 35.4619 38.2784 34.6085 36.7525C33.7809 35.2266 33.3671 33.468 33.3671 31.4765C33.3671 29.4851 33.7938 27.7265 34.6473 26.2006C35.5266 24.6747 36.7163 23.485 38.2163 22.6315C39.7422 21.7522 41.4879 21.3125 43.4535 21.3125C45.1604 21.3125 46.7251 21.7651 48.1476 22.6703C49.5959 23.5496 50.7467 24.8557 51.6002 26.5885C52.4795 28.2954 52.9192 30.3774 52.9192 32.8343H38.2163L38.6818 32.3688C38.6818 33.3257 38.9146 34.1662 39.3801 34.8904C39.8715 35.5887 40.4922 36.1318 41.2422 36.5197C42.0181 36.8818 42.8457 37.0629 43.725 37.0629C44.7854 37.0629 45.6518 36.843 46.3242 36.4034C46.9967 35.9378 47.5139 35.343 47.876 34.6188L52.4537 36.4034C51.9106 37.4896 51.1993 38.4336 50.32 39.2353C49.4665 40.0112 48.445 40.606 47.2553 41.0198C46.0656 41.4336 44.7078 41.6405 43.1819 41.6405ZM38.9534 29.498L38.4879 29.0325H47.8372L47.4105 29.498C47.4105 28.567 47.1906 27.8299 46.751 27.2868C46.3113 26.7178 45.7682 26.304 45.1216 26.0454C44.5009 25.7868 43.8932 25.6574 43.2983 25.6574C42.7035 25.6574 42.0698 25.7868 41.3974 26.0454C40.725 26.304 40.1431 26.7178 39.6517 27.2868C39.1862 27.8299 38.9534 28.567 38.9534 29.498ZM53.3899 41.175L61.3426 30.08L66.8902 21.778H72.942L65.222 32.6016L59.5193 41.175H53.3899ZM67.3169 41.175L61.6918 32.6016L53.8942 21.778H59.9461L65.4936 30.08L73.4076 41.175H67.3169ZM84.0035 41.6405C81.8569 41.6405 80.2275 41.1104 79.1154 40.05C78.0292 38.9896 77.4861 37.4767 77.4861 35.5111V15.7262H82.6069V34.3861C82.6069 35.2137 82.7879 35.8473 83.15 36.287C83.5121 36.7008 84.0423 36.9077 84.7405 36.9077C84.9992 36.9077 85.2837 36.856 85.594 36.7525C85.9044 36.6232 86.2276 36.4422 86.5639 36.2094L88.3484 40.05C87.7277 40.5155 87.0294 40.8905 86.2535 41.175C85.5035 41.4854 84.7535 41.6405 84.0035 41.6405ZM74.3438 26.123V21.778H87.4561V26.123H74.3438ZM100.008 49.4381C98.5339 49.4381 97.2278 49.3347 96.0899 49.1278C94.9519 48.9209 93.995 48.6493 93.2191 48.3131C92.4433 47.9769 91.8096 47.6407 91.3182 47.3045L93.3355 43.1923C93.6976 43.3992 94.1761 43.632 94.7709 43.8906C95.3657 44.1751 96.077 44.4078 96.9046 44.5889C97.7322 44.7958 98.6891 44.8992 99.7753 44.8992C100.81 44.8992 101.715 44.6923 102.491 44.2785C103.293 43.8906 103.913 43.2699 104.353 42.4164C104.819 41.5888 105.051 40.5285 105.051 39.2353V21.778H110.172V39.0801C110.172 41.2526 109.758 43.1147 108.931 44.6665C108.103 46.2441 106.926 47.4338 105.4 48.2355C103.9 49.0373 102.103 49.4381 100.008 49.4381ZM98.9994 40.6319C97.2149 40.6319 95.6632 40.244 94.3442 39.4681C93.051 38.6922 92.0424 37.606 91.3182 36.2094C90.5941 34.8128 90.232 33.1576 90.232 31.2438C90.232 29.2265 90.5941 27.4808 91.3182 26.0066C92.0424 24.5066 93.051 23.3557 94.3442 22.5539C95.6632 21.7263 97.2149 21.3125 98.9994 21.3125C100.551 21.3125 101.896 21.7263 103.034 22.5539C104.172 23.3557 105.051 24.5066 105.672 26.0066C106.293 27.5066 106.603 29.2911 106.603 31.3602C106.603 33.2223 106.293 34.8516 105.672 36.2482C105.051 37.6448 104.172 38.731 103.034 39.5069C101.896 40.2569 100.551 40.6319 98.9994 40.6319ZM100.474 36.3258C101.353 36.3258 102.116 36.1059 102.762 35.6663C103.435 35.2008 103.952 34.58 104.314 33.8042C104.676 33.0024 104.857 32.0972 104.857 31.0886C104.857 30.0541 104.663 29.1489 104.275 28.373C103.913 27.5971 103.396 26.9894 102.724 26.5497C102.077 26.11 101.314 25.8902 100.435 25.8902C99.5296 25.8902 98.7279 26.11 98.0296 26.5497C97.3313 26.9894 96.7882 27.5971 96.4002 28.373C96.0123 29.1489 95.8054 30.0541 95.7795 31.0886C95.8054 32.0972 96.0123 33.0024 96.4002 33.8042C96.7882 34.58 97.3313 35.2008 98.0296 35.6663C98.7537 36.1059 99.5684 36.3258 100.474 36.3258ZM126.294 41.175L126.139 37.2568V31.3602C126.139 30.1963 126.01 29.2006 125.751 28.373C125.518 27.5454 125.13 26.9118 124.587 26.4721C124.07 26.0066 123.359 25.7738 122.454 25.7738C121.626 25.7738 120.876 25.9549 120.204 26.3169C119.531 26.679 118.962 27.2351 118.497 27.9851L113.997 26.4333C114.359 25.6057 114.889 24.804 115.587 24.0281C116.285 23.2264 117.191 22.5798 118.303 22.0884C119.441 21.5711 120.824 21.3125 122.454 21.3125C124.419 21.3125 126.049 21.6875 127.342 22.4375C128.661 23.1876 129.631 24.2479 130.251 25.6186C130.898 26.9635 131.208 28.567 131.182 30.4291L131.066 41.175H126.294ZM120.863 41.6405C118.536 41.6405 116.725 41.1233 115.432 40.0888C114.165 39.0543 113.531 37.593 113.531 35.7051C113.531 33.6361 114.216 32.0843 115.587 31.0498C116.984 29.9894 118.936 29.4592 121.445 29.4592H126.372V33.2611H123.23C121.549 33.2611 120.385 33.468 119.738 33.8818C119.092 34.2697 118.768 34.8257 118.768 35.5499C118.768 36.1189 119.027 36.5715 119.544 36.9077C120.061 37.218 120.786 37.3732 121.717 37.3732C122.57 37.3732 123.32 37.1792 123.967 36.7913C124.639 36.3775 125.169 35.8602 125.557 35.2395C125.945 34.593 126.139 33.9335 126.139 33.2611H127.381C127.381 35.899 126.876 37.9551 125.868 39.4293C124.885 40.9035 123.217 41.6405 120.863 41.6405ZM143.255 41.6405C141.109 41.6405 139.479 41.1104 138.367 40.05C137.281 38.9896 136.738 37.4767 136.738 35.5111V15.7262H141.859V34.3861C141.859 35.2137 142.04 35.8473 142.402 36.287C142.764 36.7008 143.294 36.9077 143.992 36.9077C144.251 36.9077 144.535 36.856 144.846 36.7525C145.156 36.6232 145.479 36.4422 145.816 36.2094L147.6 40.05C146.979 40.5155 146.281 40.8905 145.505 41.175C144.755 41.4854 144.005 41.6405 143.255 41.6405ZM133.595 26.123V21.778H146.708V26.123H133.595ZM159.299 41.6405C157.385 41.6405 155.691 41.2138 154.217 40.3603C152.742 39.481 151.579 38.2784 150.725 36.7525C149.897 35.2266 149.484 33.468 149.484 31.4765C149.484 29.4851 149.91 27.7265 150.764 26.2006C151.643 24.6747 152.833 23.485 154.333 22.6315C155.859 21.7522 157.605 21.3125 159.57 21.3125C161.277 21.3125 162.842 21.7651 164.264 22.6703C165.712 23.5496 166.863 24.8557 167.717 26.5885C168.596 28.2954 169.036 30.3774 169.036 32.8343H154.333L154.798 32.3688C154.798 33.3257 155.031 34.1662 155.497 34.8904C155.988 35.5887 156.609 36.1318 157.359 36.5197C158.135 36.8818 158.962 37.0629 159.842 37.0629C160.902 37.0629 161.768 36.843 162.441 36.4034C163.113 35.9378 163.631 35.343 163.993 34.6188L168.57 36.4034C168.027 37.4896 167.316 38.4336 166.437 39.2353C165.583 40.0112 164.562 40.606 163.372 41.0198C162.182 41.4336 160.824 41.6405 159.299 41.6405ZM155.07 29.498L154.604 29.0325H163.954L163.527 29.498C163.527 28.567 163.307 27.8299 162.868 27.2868C162.428 26.7178 161.885 26.304 161.238 26.0454C160.618 25.7868 160.01 25.6574 159.415 25.6574C158.82 25.6574 158.186 25.7868 157.514 26.0454C156.842 26.304 156.26 26.7178 155.768 27.2868C155.303 27.8299 155.07 28.567 155.07 29.498ZM175.62 30.9722C175.62 28.8773 176.02 27.1445 176.822 25.7738C177.65 24.4031 178.697 23.3815 179.965 22.7091C181.258 22.0367 182.602 21.7005 183.999 21.7005V26.6661C182.809 26.6661 181.684 26.8083 180.624 27.0928C179.589 27.3773 178.749 27.8428 178.102 28.4894C177.456 29.136 177.133 29.9636 177.133 30.9722H175.62ZM172.012 41.175V21.778H177.133V41.175H172.012Z" fill="#292D34"/>
</svg>
